<svg xmlns="http://www.w3.org/2000/svg" viewBox="0 0 1193.23 1366.47" id="koffi"><defs><style>.cls-1{fill:#f6f6f6;}</style></defs><g id="Tasse"><path id="mancheElement" class="cls-1" d="M1139.32,1605.41c-31.82,0-62,9.86-88.9,27.46V1518.78H929.78v934.51h120.64V2147.15c26.94,17.61,57.08,27.46,88.9,27.46,114.49,0,207.29-127.42,207.29-284.6S1253.81,1605.41,1139.32,1605.41ZM1079,2075.22a233.79,233.79,0,0,1-28.58-1.78V1706.59a231.82,231.82,0,0,1,28.58-1.78c114.48,0,207.29,82.92,207.29,185.2S1193.48,2075.22,1079,2075.22Z" transform="translate(-153.39 -1086.81)"/><path class="cls-1" d="M203.51,1518.78v934.51H866.16V1518.78Zm315.78,720.37a34.74,34.74,0,0,1-19.43,5.38,41.31,41.31,0,0,1-10.36-1.34,60.61,60.61,0,0,0-9.5-.68q-23.33-103-46.63-172.28a716.71,716.71,0,0,0-58.72-130.55l-18.13,26.24q-7.77,11.44-8.64,20.19-2.6,20.19-2.59,29.61,0,20.19,2.59,61.91,2.6,41.05,2.59,62.59v55.18q0,35.68-29.36,35.67-25,0-25-37.68,0-29.62,5.18-90.86,6-56.52,6.05-90.17l.86-57.88v-70a524.45,524.45,0,0,0-6-77.39q-6.06-41.71-6.05-63.26A18.91,18.91,0,0,1,303,1729q6.9-6.06,17.27-6.06,31.94,0,31.95,54.51l-3.45,138,16.4-33q28.5-56.52,58.72-111.71Q441.14,1740.48,455,1723q14.69-18.17,23.32-18.17a29,29,0,0,1,16.84,5c4.88,3.36,7.34,7.51,7.34,12.45q0,6.74-46.63,83.44-45.78,73.37-53.54,97.59v12.11q13,25.58,69.08,163.87t56.13,146.36Q527.49,2233.77,519.29,2239.15Zm254.29,85.67q-17.05,9.19-40.65,11.76-13.11,1-21,1a84.31,84.31,0,0,1-33.77-6.65,83.23,83.23,0,0,1-26.55-17.88q-9.84-10.72-17.7-27.33a160.8,160.8,0,0,1-11.8-34.49q-7.87-30.15-10.49-79.2-.66-11.75-.66-40.36V2099.5q.64-13.8.66-28.61,0-30.15,4.59-47.52a63.54,63.54,0,0,1-2-15.84q0-30.66,29.5-49.56t74.74-18.9a69.85,69.85,0,0,1,31.47,7.15q14.41,7.15,14.42,17.88,0,5.12-5.24,8.18c-3.51,2-7.87,3.06-13.12,3.06a71,71,0,0,1-14.09-1.53c-5-1-8.19-2.55-9.51-4.6h-8.52v-1q-24.25,0-40.65,8.17-11.79,6.66-18.35,22a53.16,53.16,0,0,0-3.94,14.31,106.17,106.17,0,0,0-1.31,15.84c-.44,2.73-.65,8.17-.65,16.35l1.31,17.88.65,17.38a73.66,73.66,0,0,1-2.62,17.88q-3.29,12.78-3.28,17.88v12.26q0,19.93,2,54.67a243.53,243.53,0,0,0,8.52,58.25q5.91,27.09,22.29,46,15.74,19.42,42.62,19.42,11.13,0,27.53-9.2,17.7-9.2,24.91-9.2,9.18,0,19,7.67Q791.94,2314.6,773.58,2324.82Z" transform="translate(-153.39 -1086.81)"/></g><g id="Fumée"><path class="cls-1" d="M632.86,1357.47a10.23,10.23,0,0,0-12.08,8c-3.81,18.5-16.25,32.59-39.13,44.32a202.7,202.7,0,0,1-26.75,11.06,80.43,80.43,0,0,0,8.15-22.75c4.64-22.58.21-40.64-13.16-53.68-16.49-16.09-45.89-23.15-87.36-21a354.67,354.67,0,0,0-55.21,7.41c-32.67,5.81-60.71,8.26-84.8,8.26-97.66,0-130.09-40.35-140.24-60.89-9.2-18.63-10.89-40.27-4.89-62.57,5.94-22.06,19.37-43.5,37.81-60.38a10.23,10.23,0,0,0-13.82-15.1c-21.27,19.47-36.81,44.39-43.75,70.16-7.32,27.18-5.14,53.79,6.3,77,14.36,29.06,42.43,50.52,81.18,62.07,43.47,13,99.33,13.49,166.05,1.61l.51-.11c26-6,98.86-16.23,123.94,8.25,8.16,8,10.58,19.38,7.39,34.9-6.61,32.17-29.6,44.68-84.81,46.15a10.23,10.23,0,0,0,.27,20.46h.27c16.53-.44,32.8-1.75,47.47-5.44,63.21-14,123.84-33.18,134.62-85.56A10.23,10.23,0,0,0,632.86,1357.47Z" transform="translate(-153.39 -1086.81)"/><path class="cls-1" d="M715.09,1234.22a706.17,706.17,0,0,0-89.71-5.27c-29.4,0-58.74,2.19-87.12,4.3-37.93,2.83-76.83,5.72-98.35.54a9.59,9.59,0,0,0-1.88-.48c-5.68-1.57-10-3.78-12.52-6.82-1.08-1.29-4.35-5.24-1.33-16.62,9.66-36.47,57.45-53.52,95.84-61.41,43.73-9,85.66-8.33,86.07-8.33a10.23,10.23,0,0,0,4.09-19.69c-1.75-.72-43.7-17.88-101.84-27.48-54.08-8.94-132.68-12.56-200,20.91a10.23,10.23,0,1,0,9.12,18.32c62.26-31,136.09-27.48,187.06-19.12,16.9,2.78,32.47,6.26,46,9.77-54.54,6.41-131.23,25.49-146.15,81.78q-3,11.19-1.36,20.24c-18.22-8.07-33.09-23.45-33.09-53.85a10.23,10.23,0,0,0-20.46,0c0,60.17,46.46,78.1,85.56,82.53,10.72,2.63,23.7,3.61,38.49,3.61,19.36,0,41.8-1.67,66.25-3.49,28-2.08,57-4.24,85.6-4.24a685.09,685.09,0,0,1,87.08,5.1,10.23,10.23,0,0,0,2.63-20.3Z" transform="translate(-153.39 -1086.81)"/><path class="cls-1" d="M859.37,1323c-13-22.29-33.09-40.92-59.67-55.37a10.23,10.23,0,1,0-9.78,18c44.45,24.17,67,60.35,67,107.53,0,52.7-28,98.64-75,122.89a10.23,10.23,0,1,0,9.4,18.18c53.86-27.83,86-80.56,86-141.07C877.38,1367,871.32,1343.41,859.37,1323Z" transform="translate(-153.39 -1086.81)"/><path class="cls-1" d="M446.66,1664.59c-19.74-28.12-55.4-43.61-100.42-43.61-23.28,0-43.59-6.12-58.72-17.69A67.87,67.87,0,0,1,262,1562.74a70.1,70.1,0,0,1,8.3-48.45c9.65-16.84,26-30.37,47.14-39.14,15.42-6.38,33.35-10.54,54.81-12.72a10.23,10.23,0,1,0-2.06-20.36c-23.47,2.38-43.29,7-60.58,14.17-57.22,23.68-75.23,72.55-67.69,110.49a88.36,88.36,0,0,0,33.2,52.82c18.73,14.33,43.34,21.9,71.15,21.9,38.16,0,67.87,12.39,83.67,34.9" transform="translate(-153.39 -1086.81)"/><path class="cls-1" d="M525.2,1588.21" transform="translate(-153.39 -1086.81)"/><path class="cls-1" d="M551,1579.76c4-5.42,9.73-9.68,16.88-13l.11,0c26.37-12.33,71.85-12.34,119.41-12.34a200.31,200.31,0,0,0,46-5.23,10.23,10.23,0,0,0-4.71-19.92,179.63,179.63,0,0,1-41.28,4.69c-51.44,0-97.63,0-128,14.17-32.42,10.85-70.62,34.81-81.92,70.13" transform="translate(-153.39 -1086.81)"/></g></svg>